<svg version="1.2" xmlns="http://www.w3.org/2000/svg" viewBox="0 0 175 70" width="175" height="70">
	<title>Nytt projekt</title>
	<style>
		.s0 { fill: #000000 } 
	</style>
	<path id="Form 2" fill-rule="evenodd" class="s0" d="m2 47.3c6.5-3.7 7.3-15.8 12.8-19.1 2-1.2 4.5 3.7 6 5 4.1 3.7 7.1 1.4 10.9 4 1.5 1 2.7 4.3 4.4 4.6 5.4 1 7.5-5.3 11.5-8.3 2-1.4 3.6 4.6 5.8 1.8 1.8-2.2 2.7-9.6 4.5-10.5 2.1-1 3 5.9 6 4.8 4.4-1.7 8.8-27.6 11-27.6 4.8 0 7.4 28.4 12.8 27.9 1.4-0.2-1 4.3 3.9-6.2 4.8-10.6 5.6 5.5 7.1 6.7 0.9 0.8 6.2-7.2 7.6-7 6.2 1 9.2 11.8 15.6 12.2 4.5 0.3 4.3-15.7 7.9-14.6 3.1 0.9 17.8 15.4 21.2 16.9 3.8 1.6 15.3 7.3 22 9"/>
	<path id="VANVENTURES" class="s0" aria-label="VANVENTURES"  d="m10.8 52h-1.9l-1.5 9.9-1.5-9.9h-2l2.2 13h2.5zm13.4 0h-2.5l-2.2 13h1.9l0.5-3h2.1l0.5 3h2zm-1.3 2.7l0.8 5.5h-1.6l0.8-5.5zm19.6-2.7h-1.8v7.7h-0.1l-2.3-7.7h-2.2v12.9h1.9v-8.6l2.6 8.6h1.9zm16.7 0h-1.9l-1.5 9.9-1.5-9.9h-2l2.2 13h2.5zm15.4 0h-5.6v12.9h5.6v-1.8h-3.6v-3.8h2.9v-1.8h-2.9v-3.7h3.6zm16.4 0h-1.9v7.7l-2.3-7.7h-2.2v13h1.9v-8.6l2.6 8.6h1.9zm15.8 0h-6.2v1.8h2.1v11.1h2v-11.1h2.1zm15.6 0h-2v10c0 1-0.4 1.3-1.1 1.3-0.7 0-1.1-0.3-1.1-1.3v-10h-1.9v10.1c0 2 1.2 3.1 3 3.1 1.9 0 3.1-1.1 3.1-3.1zm16.9 12.9l-1.8-5.9c0.9-0.5 1.4-1.5 1.4-2.8v-1c0-2.1-1.2-3.2-3.3-3.2h-2.8v12.9h2v-5.5h0.9l1.5 5.5zm-3.7-11.1c0.9 0 1.3 0.5 1.3 1.6v0.6c0 1.1-0.4 1.6-1.3 1.6h-0.8v-3.8zm19-1.8h-5.5v12.9h5.5v-1.8h-3.5v-3.8h2.9v-1.9h-2.9v-3.6h3.5zm12.4-0.2c-1.9 0-2.9 1.1-2.9 2.9v0.3c0 1.5 0.6 2.6 2.4 4.1 1.3 1.1 1.7 1.8 1.7 2.6v0.4c0 0.8-0.4 1.2-1.1 1.2-0.8 0-1.2-0.4-1.2-1.2v-0.9l-1.8 0.2v0.8c0 1.9 1 2.9 3 2.9 1.9 0 3-1 3-2.9v-0.6c0-1.6-0.6-2.7-2.4-4.2-1.3-1.1-1.7-1.7-1.7-2.5v-0.2c0-0.7 0.4-1.1 1-1.1 0.7 0 1 0.4 1 1.1v0.5l1.9-0.2v-0.3c0-1.8-1-2.9-2.9-2.9z"/>
	<path id="Form 3" class="s0" d="m30 21c-4.4 0-8-3.6-8-8 0-4.4 3.6-8 8-8 4.4 0 8 3.6 8 8 0 4.4-3.6 8-8 8z"/>
</svg>